<?xml version="1.0" encoding="utf-8"?>
<!-- Generator: Adobe Illustrator 16.0.0, SVG Export Plug-In . SVG Version: 6.00 Build 0)  -->
<!DOCTYPE svg PUBLIC "-//W3C//DTD SVG 1.1//EN" "http://www.w3.org/Graphics/SVG/1.1/DTD/svg11.dtd">
<svg version="1.1" id="Layer_1" xmlns="http://www.w3.org/2000/svg" xmlns:xlink="http://www.w3.org/1999/xlink" x="0px" y="0px"
	 width="450px" height="315.303px" viewBox="0 0 450 315.303" enable-background="new 0 0 450 315.303" xml:space="preserve">
<g>
	<g>
		<g>
			<path fill="#333847" d="M99.361,187.972H78.02V73.001h21.342V187.972z"/>
		</g>
		<g>
			<path fill="#333847" d="M219.384,187.972h-20.207l-51.304-76.908v76.908h-20.641V73.001h20.292l51.04,76.996V73.001h20.819
				V187.972z"/>
		</g>
		<g>
			<path fill="#333847" d="M331.477,92.772h-35.795v95.199h-21.516V92.772h-35.621V73.001h92.932V92.772z"/>
		</g>
		<g>
			<path fill="#333847" d="M371.98,187.972h-21.342V73.001h21.342V187.972z"/>
		</g>
	</g>
	<g>
		<rect x="25" y="17.517" fill="#FFAFA1" width="400" height="10"/>
	</g>
	<g>
		<rect x="25" y="236.517" fill="#FFAFA1" width="400" height="10"/>
	</g>
	<g>
		<g>
			<path fill="#333847" d="M109.932,297.274V276.89h4.226c3.049,0,5.261,0.246,6.639,0.736c1.974,0.691,3.521,1.893,4.635,3.6
				c1.11,1.71,1.668,3.748,1.668,6.113c0,2.04-0.441,3.837-1.322,5.39c-0.882,1.552-2.027,2.697-3.437,3.437
				c-1.41,0.739-3.384,1.108-5.923,1.108H109.932z M111.885,295.347h2.354c2.819,0,4.772-0.174,5.862-0.525
				c1.533-0.499,2.739-1.396,3.615-2.692c0.879-1.299,1.317-2.882,1.317-4.756c0-1.966-0.475-3.647-1.428-5.041
				c-0.95-1.394-2.277-2.349-3.975-2.864c-1.275-0.388-3.379-0.583-6.306-0.583h-1.441V295.347z"/>
		</g>
		<g>
			<path fill="#333847" d="M139.574,276.89h11.682v1.996h-9.644v6.39h9.563v1.995h-9.563v8.008h9.563v1.996h-11.601V276.89z"/>
		</g>
		<g>
			<path fill="#333847" d="M161.737,276.89h2.217l6.754,15.749l6.868-15.749h2.217l-8.868,20.384h-0.443L161.737,276.89z"/>
		</g>
		<g>
			<path fill="#333847" d="M191.744,276.89h11.682v1.996h-9.645v6.39h9.561v1.995h-9.561v8.008h9.561v1.996h-11.598V276.89z"/>
		</g>
		<g>
			<path fill="#333847" d="M215.459,276.89h2.035v18.415h7.844v1.969h-9.879V276.89z"/>
		</g>
		<g>
			<path fill="#333847" d="M246.785,276.378c3.088,0,5.672,1.029,7.752,3.091c2.08,2.059,3.12,4.595,3.12,7.606
				c0,2.985-1.038,5.517-3.115,7.594c-2.074,2.077-4.605,3.117-7.591,3.117c-3.021,0-5.574-1.035-7.653-3.104
				c-2.08-2.069-3.12-4.571-3.12-7.509c0-1.958,0.475-3.774,1.423-5.445c0.947-1.673,2.238-2.982,3.874-3.93
				C243.111,276.851,244.882,276.378,246.785,276.378z M246.875,278.36c-1.507,0-2.938,0.393-4.289,1.177
				c-1.349,0.786-2.404,1.845-3.164,3.178c-0.758,1.33-1.138,2.813-1.138,4.45c0,2.423,0.839,4.469,2.521,6.137
				c1.679,1.668,3.703,2.505,6.07,2.505c1.584,0,3.046-0.386,4.395-1.154c1.346-0.765,2.394-1.816,3.148-3.146
				c0.755-1.333,1.133-2.811,1.133-4.439c0-1.618-0.378-3.08-1.133-4.389c-0.755-1.307-1.815-2.354-3.186-3.141
				C249.865,278.753,248.411,278.36,246.875,278.36z"/>
		</g>
		<g>
			<path fill="#333847" d="M270.244,276.89h4.059c2.328,0,3.898,0.103,4.712,0.306c1.164,0.285,2.114,0.874,2.855,1.766
				c0.736,0.892,1.108,2.011,1.108,3.36c0,1.359-0.361,2.479-1.082,3.36c-0.721,0.884-1.713,1.478-2.979,1.782
				c-0.924,0.222-2.65,0.333-5.182,0.333h-1.454v9.478h-2.037V276.89z M272.281,278.886v6.915l3.45,0.042
				c1.394,0,2.415-0.126,3.062-0.38s1.153-0.665,1.525-1.233c0.367-0.564,0.555-1.201,0.555-1.9c0-0.684-0.188-1.307-0.555-1.874
				c-0.372-0.567-0.857-0.971-1.462-1.209c-0.607-0.24-1.597-0.361-2.973-0.361H272.281z"/>
		</g>
		<g>
			<path fill="#333847" d="M295.579,276.89h11.682v1.996h-9.645v6.39h9.561v1.995h-9.561v8.008h9.561v1.996h-11.598V276.89z"/>
		</g>
		<g>
			<path fill="#333847" d="M319.404,276.89h4.06c2.265,0,3.798,0.092,4.601,0.277c1.211,0.28,2.193,0.874,2.953,1.784
				c0.755,0.911,1.135,2.032,1.135,3.365c0,1.108-0.261,2.085-0.783,2.927c-0.521,0.842-1.268,1.478-2.236,1.908
				c-0.971,0.43-2.312,0.649-4.02,0.657l7.33,9.465h-2.521l-7.33-9.465h-1.15v9.465h-2.038V276.89z M321.442,278.886v6.928
				l3.51,0.029c1.359,0,2.368-0.129,3.02-0.388c0.652-0.259,1.161-0.673,1.525-1.241c0.367-0.567,0.55-1.204,0.55-1.906
				c0-0.684-0.186-1.304-0.555-1.863c-0.372-0.56-0.857-0.958-1.457-1.198c-0.602-0.24-1.602-0.361-2.998-0.361H321.442z"/>
		</g>
	</g>
</g>
</svg>
